<svg version="1.2" xmlns="http://www.w3.org/2000/svg" viewBox="0 0 397 112" width="397" height="112">
	<title>sisec</title>
	<style>
		.s0 { fill: #006d4e } 
		.s1 { fill: #079def } 
	</style>
	<g>
		<g>
			<path class="s0" d="m58.1 38.1c-0.7-4.5-4.3-12.1-16-12.1-8 0-13.2 5-13.2 10.3 0 4.6 2.9 8 9.5 9.2l12.9 2.4c18.3 3.4 27.9 15.2 27.9 28.9 0 15.1-12.6 30.4-35.6 30.4-26.6 0-38.1-17.3-39.4-30.9l19.7-4.8c0.8 8.8 6.8 16.6 20 16.6 8.4 0 13.6-4.1 13.6-10.1 0-4.9-3.9-8.4-10.3-9.6l-13.2-2.4c-16.3-3.1-26.2-14-26.2-28.3 0-18.2 16-31 34.5-31 24.1 0 33.2 14.4 35.2 25.7z"/>
			<path class="s0" d="m95.4 105.4v-96.4h21.7v96.4z"/>
			<path class="s0" d="m186.3 38.1c-0.7-4.5-4.3-12.1-16-12.1-8 0-13.2 5-13.2 10.3 0 4.6 2.9 8 9.5 9.2l12.9 2.4c18.3 3.4 27.9 15.2 27.9 28.9 0 15.1-12.6 30.4-35.6 30.4-26.6 0-38.1-17.3-39.4-30.9l19.7-4.8c0.8 8.8 6.8 16.6 20 16.6 8.4 0 13.6-4.1 13.6-10.1 0-4.9-3.9-8.4-10.3-9.6l-13.2-2.4c-16.3-3.1-26.2-14-26.2-28.3 0-18.2 16-31 34.5-31 24.1 0 33.2 14.4 35.2 25.7z"/>
			<path class="s0" d="m223.5 105.4v-96.4h61v20.3h-39.5v18.3h35.9v18.9h-35.9v18.5h39.7v20.4z"/>
			<path class="s0" d="m295.7 57.4c0-30 22.8-50.4 49.7-50.4 28.9 0 41.7 18.6 44.8 32.5l-20.2 6.4c-1.5-6.7-7.6-17.9-24.6-17.9-12.9 0-27.5 9.2-27.5 29.5 0 18.1 13.3 28.5 27.7 28.5 16.7 0 23.4-11.1 25.3-18.1l20.5 5.8c-3.1 13.3-15.9 33.7-45.8 33.7-27.6 0-49.9-20-49.9-50z"/>
		</g>
		<g>
			<path class="s1" d="m432.5 4.4h5.9l-15.6 40.4h-5.5l-15.2-40.4h5.9l12.2 33.2z"/>
			<path class="s1" d="m449.8 23l10.9-10h-17.7v-5.1h25.1v5l-10.5 9.7c5.4 0 11.4 3.6 11.4 11.2 0 6.2-4.8 11.9-13.4 11.9-8.6 0-13.4-5.6-13.7-11.6l5.5-1.3c0.2 4.9 3.8 8 8.2 8 5.1 0 7.8-3.1 7.8-6.8 0-4.8-3.9-6.9-7.5-6.9-1.1 0-2.3 0.2-3.2 0.6z"/>
		</g>
	</g>
</svg>